<svg width="311" height="311" viewBox="0 0 311 311" fill="none" xmlns="http://www.w3.org/2000/svg">
<rect width="311" height="311" fill="#0D3B66"/>
<g clip-path="url(#clip0_948_153)">
<path d="M250.062 156C250.062 130.788 240.047 106.608 222.219 88.7807C204.392 70.953 180.212 60.9375 155 60.9375C129.788 60.9375 105.608 70.953 87.7807 88.7807C69.953 106.608 59.9375 130.788 59.9375 156C59.9375 181.212 69.953 205.392 87.7807 223.219C105.608 241.047 129.788 251.062 155 251.062C180.212 251.062 204.392 241.047 222.219 223.219C240.047 205.392 250.062 181.212 250.062 156ZM38 156C38 124.97 50.3268 95.2103 72.2685 73.2685C94.2103 51.3268 123.97 39 155 39C186.03 39 215.79 51.3268 237.731 73.2685C259.673 95.2103 272 124.97 272 156C272 187.03 259.673 216.79 237.731 238.731C215.79 260.673 186.03 273 155 273C123.97 273 94.2103 260.673 72.2685 238.731C50.3268 216.79 38 187.03 38 156ZM118.62 119.438C122.499 119.438 126.219 120.978 128.962 123.721C131.704 126.464 133.245 130.184 133.245 134.062C133.245 137.941 131.704 141.661 128.962 144.404C126.219 147.147 122.499 148.688 118.62 148.688C114.742 148.688 111.022 147.147 108.279 144.404C105.536 141.661 103.995 137.941 103.995 134.062C103.995 130.184 105.536 126.464 108.279 123.721C111.022 120.978 114.742 119.437 118.62 119.438ZM177.12 134.062C177.12 130.184 178.661 126.464 181.404 123.721C184.147 120.978 187.867 119.437 191.745 119.438C195.624 119.437 199.344 120.978 202.087 123.721C204.829 126.464 206.37 130.184 206.37 134.062C206.37 137.941 204.829 141.661 202.087 144.404C199.344 147.147 195.624 148.688 191.745 148.688C187.867 148.688 184.147 147.147 181.404 144.404C178.661 141.661 177.12 137.941 177.12 134.062ZM155 170.625C162.758 170.625 170.197 173.707 175.683 179.192C181.168 184.678 184.25 192.117 184.25 199.875C184.25 207.633 181.168 215.072 175.683 220.558C170.197 226.043 162.758 229.125 155 229.125C147.242 229.125 139.803 226.043 134.317 220.558C128.832 215.072 125.75 207.633 125.75 199.875C125.75 192.117 128.832 184.678 134.317 179.192C139.803 173.707 147.242 170.625 155 170.625Z" fill="white"/>
</g>
<defs>
<clipPath id="clip0_948_153">
<rect width="234" height="234" fill="white" transform="translate(38 39)"/>
</clipPath>
</defs>
</svg>
